<?xml version="1.0" standalone="no"?>
<!DOCTYPE svg PUBLIC "-//W3C//DTD SVG 20010904//EN"
 "http://www.w3.org/TR/2001/REC-SVG-20010904/DTD/svg10.dtd">
<svg version="1.0" xmlns="http://www.w3.org/2000/svg"
 width="500.000000pt" height="500.000000pt" viewBox="0 0 500.000000 500.000000"
 preserveAspectRatio="xMidYMid meet">

<g transform="translate(0.000000,500.000000) scale(0.100000,-0.100000)"
fill="#000000" stroke="none">
<path d="M2911 3551 c-8 -5 -9 -11 -3 -15 5 -3 12 1 16 9 6 17 6 18 -13 6z"/>
<path d="M2882 3500 c-7 -11 -20 -20 -30 -21 -14 0 -14 -2 3 -8 14 -6 24 -3
33 11 8 10 12 23 10 28 -2 6 -9 1 -16 -10z"/>
<path d="M2010 3271 c0 -6 4 -13 10 -16 6 -3 7 1 4 9 -7 18 -14 21 -14 7z"/>
<path d="M2545 3249 c-4 -6 -5 -12 -2 -15 2 -3 7 2 10 11 7 17 1 20 -8 4z"/>
<path d="M2035 3230 c3 -5 8 -10 11 -10 2 0 4 5 4 10 0 6 -5 10 -11 10 -5 0
-7 -4 -4 -10z"/>
<path d="M2553 3199 c-2 -23 3 -25 10 -4 4 8 3 16 -1 19 -4 3 -9 -4 -9 -15z"/>
<path d="M3440 3210 c0 -5 5 -10 11 -10 5 0 7 5 4 10 -3 6 -8 10 -11 10 -2 0
-4 -4 -4 -10z"/>
<path d="M3470 3210 c0 -5 5 -10 10 -10 6 0 10 5 10 10 0 6 -4 10 -10 10 -5 0
-10 -4 -10 -10z"/>
<path d="M3520 3200 c0 -5 5 -10 11 -10 5 0 7 5 4 10 -3 6 -8 10 -11 10 -2 0
-4 -4 -4 -10z"/>
<path d="M2060 3190 c0 -5 5 -10 10 -10 6 0 10 5 10 10 0 6 -4 10 -10 10 -5 0
-10 -4 -10 -10z"/>
<path d="M3495 3191 c-3 -5 -2 -12 3 -15 5 -3 9 1 9 9 0 17 -3 19 -12 6z"/>
<path d="M1233 3183 c-7 -3 -13 -12 -13 -21 -1 -15 -3 -14 -15 2 -8 11 -15 15
-15 9 0 -14 65 -63 84 -63 8 0 18 5 22 11 4 8 0 9 -15 4 -25 -8 -27 3 -3 21
14 11 15 15 3 26 -12 11 -13 10 -8 -4 8 -24 -8 -23 -19 1 -5 10 -15 16 -21 14z
m17 -33 c0 -5 -2 -10 -4 -10 -3 0 -8 5 -11 10 -3 6 -1 10 4 10 6 0 11 -4 11
-10z"/>
<path d="M1149 3162 c-8 -10 -28 -27 -44 -39 -17 -12 -27 -25 -22 -29 4 -4 13
1 21 11 12 17 14 17 29 -6 10 -13 17 -18 17 -12 0 7 -4 15 -10 18 -15 9 -12
25 4 19 8 -3 16 -14 19 -25 5 -17 9 -19 25 -10 23 12 19 51 -5 51 -12 0 -12
-3 2 -16 9 -9 13 -19 10 -22 -11 -12 -33 33 -24 50 12 23 -4 31 -22 10z"/>
<path d="M2525 3170 c-3 -5 1 -10 10 -10 9 0 13 5 10 10 -3 6 -8 10 -10 10 -2
0 -7 -4 -10 -10z"/>
<path d="M2090 3152 c6 -13 14 -21 18 -18 3 4 -2 14 -12 24 -18 16 -18 16 -6
-6z"/>
<path d="M3575 3160 c-3 -5 -1 -10 4 -10 6 0 11 5 11 10 0 6 -2 10 -4 10 -3 0
-8 -4 -11 -10z"/>
<path d="M2507 3135 c3 -8 9 -12 14 -9 12 7 11 11 -5 17 -10 4 -13 1 -9 -8z"/>
<path d="M1220 3110 c0 -5 5 -10 10 -10 6 0 10 5 10 10 0 6 -4 10 -10 10 -5 0
-10 -4 -10 -10z"/>
<path d="M1038 3081 c-15 -9 -29 -25 -32 -36 -5 -19 -4 -19 13 2 14 16 29 22
60 21 45 0 57 5 47 21 -5 7 -13 7 -27 -2 -14 -8 -22 -9 -27 -1 -5 7 -16 6 -34
-5z"/>
<path d="M875 2860 c-4 -6 -1 -9 7 -8 8 2 12 -5 10 -17 -2 -15 0 -17 6 -6 6 8
18 11 30 7 11 -4 23 -3 25 1 3 5 -6 10 -20 11 -14 1 -32 7 -39 12 -8 8 -14 8
-19 0z"/>
<path d="M1000 2820 c-13 -8 -12 -10 3 -10 9 0 17 5 17 10 0 12 -1 12 -20 0z"/>
<path d="M925 2810 c-16 -7 -17 -9 -3 -9 9 -1 20 4 23 9 7 11 7 11 -20 0z"/>
<path d="M1320 2811 c0 -6 4 -13 10 -16 6 -3 7 1 4 9 -7 18 -14 21 -14 7z"/>
<path d="M3890 2808 c0 -4 5 -8 11 -8 5 0 7 -4 4 -10 -3 -5 1 -10 9 -10 10 0
13 6 9 17 -5 12 -3 14 8 8 8 -4 11 -4 6 0 -10 12 -47 14 -47 3z"/>
<path d="M1240 2779 c0 -5 5 -7 10 -4 6 3 10 8 10 11 0 2 -4 4 -10 4 -5 0 -10
-5 -10 -11z"/>
<path d="M1300 2774 c0 -8 5 -12 10 -9 6 4 8 11 5 16 -9 14 -15 11 -15 -7z"/>
<path d="M999 2763 c-13 -17 -13 -17 6 -3 11 8 22 16 24 17 2 2 0 3 -6 3 -6 0
-17 -8 -24 -17z"/>
<path d="M3855 2769 c-4 -6 -5 -12 -2 -15 2 -3 7 2 10 11 7 17 1 20 -8 4z"/>
<path d="M3945 2755 c0 -13 3 -21 8 -18 4 2 7 10 7 18 0 8 -3 16 -7 18 -5 3
-8 -5 -8 -18z"/>
<path d="M945 2760 c-3 -5 -1 -10 4 -10 6 0 11 5 11 10 0 6 -2 10 -4 10 -3 0
-8 -4 -11 -10z"/>
<path d="M1050 2756 c0 -9 5 -16 10 -16 6 0 10 4 10 9 0 6 -4 13 -10 16 -5 3
-10 -1 -10 -9z"/>
<path d="M1212 2754 c-7 -8 -8 -14 -3 -14 10 0 25 19 20 25 -2 1 -10 -3 -17
-11z"/>
<path d="M3886 2755 c-3 -9 -6 -22 -5 -28 0 -7 5 -1 10 12 5 13 8 26 5 28 -2
2 -6 -3 -10 -12z"/>
<path d="M3913 2735 c0 -8 4 -15 9 -15 4 0 8 4 8 9 0 6 -4 12 -8 15 -5 3 -9
-1 -9 -9z"/>
<path d="M1005 2730 c-16 -7 -17 -9 -3 -9 9 -1 20 4 23 9 7 11 7 11 -20 0z"/>
<path d="M1060 2715 c-7 -9 -10 -18 -6 -22 3 -3 6 -1 6 6 0 8 8 10 23 6 12 -3
18 -3 12 2 -5 5 -13 12 -16 16 -3 4 -12 1 -19 -8z"/>
<path d="M1155 2720 c-3 -5 -1 -10 4 -10 6 0 11 5 11 10 0 6 -2 10 -4 10 -3 0
-8 -4 -11 -10z"/>
<path d="M3884 2694 c-18 -14 -18 -15 4 -4 12 6 22 13 22 15 0 8 -5 6 -26 -11z"/>
<path d="M2167 2655 c-10 -7 -27 -10 -39 -7 -14 3 -19 1 -14 -6 4 -7 2 -12 -4
-12 -6 0 -8 -5 -5 -11 5 -6 12 -4 21 8 11 14 13 15 14 3 0 -12 2 -13 9 -1 5 7
13 11 17 8 5 -3 15 1 21 9 17 18 2 25 -20 9z"/>
<path d="M2048 2613 c7 -3 16 -2 19 1 4 3 -2 6 -13 5 -11 0 -14 -3 -6 -6z"/>
<path d="M1121 2536 c-6 -7 -9 -21 -5 -30 5 -14 9 -12 25 8 10 13 19 27 19 30
0 11 -28 6 -39 -8z"/>
<path d="M2271 2501 c11 -22 28 -42 37 -45 15 -6 15 -5 0 7 -10 8 -15 16 -13
19 3 3 -1 11 -10 18 -8 7 -15 19 -15 26 0 8 -4 14 -10 14 -5 0 0 -18 11 -39z"/>
<path d="M1160 2255 c0 -8 7 -15 16 -15 14 0 14 3 4 15 -7 8 -14 15 -16 15 -2
0 -4 -7 -4 -15z"/>
<path d="M2461 2077 c-8 -10 -7 -14 2 -14 8 0 14 6 14 14 0 7 -1 13 -2 13 -2
0 -8 -6 -14 -13z"/>
<path d="M1570 1816 c0 -2 7 -7 16 -10 8 -3 12 -2 9 4 -6 10 -25 14 -25 6z"/>
<path d="M2165 1661 c-3 -5 -2 -12 3 -15 5 -3 9 1 9 9 0 17 -3 19 -12 6z"/>
<path d="M2841 1612 c1 -4 1 -14 0 -21 -1 -12 -4 -12 -13 -3 -7 7 -17 12 -22
12 -6 0 -3 -7 7 -14 16 -13 16 -15 2 -30 -9 -9 -12 -16 -6 -16 5 0 13 5 16 10
4 6 11 8 16 5 5 -3 6 1 3 10 -5 11 -2 14 12 9 16 -5 16 -4 4 5 -12 9 -13 13
-2 20 11 7 11 9 -2 14 -9 4 -15 3 -15 -1z"/>
<path d="M2176 1591 c-3 -4 6 -6 19 -3 14 2 25 6 25 8 0 8 -39 4 -44 -5z"/>
<path d="M2179 1563 c-13 -16 -12 -17 4 -4 9 7 17 15 17 17 0 8 -8 3 -21 -13z"/>
<path d="M2779 1557 c-14 -11 -14 -14 1 -30 16 -17 17 -16 16 13 -1 16 -1 30
-1 30 0 -1 -7 -6 -16 -13z"/>
<path d="M3160 1559 c0 -5 5 -9 10 -9 6 0 12 0 15 0 14 0 8 13 -7 16 -10 1
-18 -2 -18 -7z"/>
<path d="M1846 1537 c18 -26 34 -35 34 -19 0 4 -13 16 -27 26 l-27 20 20 -27z"/>
<path d="M2210 1550 c0 -5 5 -10 11 -10 5 0 7 5 4 10 -3 6 -8 10 -11 10 -2 0
-4 -4 -4 -10z"/>
<path d="M3131 1531 c-8 -5 -10 -14 -6 -22 6 -9 4 -11 -7 -6 -11 4 -18 -2 -22
-19 -4 -14 -12 -24 -19 -21 -15 5 -36 -23 -30 -40 4 -9 13 -5 29 14 13 16 24
30 24 33 0 3 16 16 35 29 19 13 32 27 29 32 -7 11 -15 11 -33 0z"/>
<path d="M2230 1522 c0 -5 7 -9 15 -9 8 0 12 4 9 9 -3 4 -9 8 -15 8 -5 0 -9
-4 -9 -8z"/>
<path d="M2220 1479 c0 -12 7 -15 23 -12 13 3 24 10 24 16 0 7 -11 12 -24 12
-14 0 -23 -6 -23 -16z"/>
<path d="M2129 1467 c6 -8 7 -18 3 -22 -4 -5 -1 -5 6 -1 10 6 10 11 1 22 -6 8
-14 14 -16 14 -3 0 0 -6 6 -13z"/>
<path d="M2184 1459 c-10 -17 9 -30 26 -18 12 9 12 10 -4 5 -13 -5 -17 -2 -12
9 6 17 0 20 -10 4z"/>
<path d="M2229 1433 c-13 -16 -12 -17 4 -4 9 7 17 15 17 17 0 8 -8 3 -21 -13z"/>
<path d="M2266 1435 c4 -8 8 -15 10 -15 2 0 4 7 4 15 0 8 -4 15 -10 15 -5 0
-7 -7 -4 -15z"/>
<path d="M3020 1414 c0 -8 5 -12 10 -9 6 4 8 11 5 16 -9 14 -15 11 -15 -7z"/>
<path d="M2976 1382 c-3 -5 1 -9 9 -9 8 0 15 4 15 9 0 4 -4 8 -9 8 -6 0 -12
-4 -15 -8z"/>
<path d="M2945 1340 c-3 -5 3 -10 15 -10 12 0 18 5 15 10 -3 6 -10 10 -15 10
-5 0 -12 -4 -15 -10z"/>
<path d="M2685 1320 c-3 -6 1 -7 9 -4 18 7 21 14 7 14 -6 0 -13 -4 -16 -10z"/>
<path d="M2293 1305 c0 -8 4 -12 9 -9 5 3 6 10 3 15 -9 13 -12 11 -12 -6z"/>
<path d="M2903 1296 c-15 -13 -26 -26 -23 -28 3 -2 18 9 34 24 35 34 27 37
-11 4z"/>
<path d="M2667 1293 c-3 -5 6 -9 20 -10 19 -1 22 1 12 8 -17 11 -26 11 -32 2z"/>
<path d="M2851 1237 c-13 -21 -12 -21 5 -5 10 10 16 20 13 22 -3 3 -11 -5 -18
-17z"/>
</g>
</svg>
